<svg width="134" height="134" viewBox="0 0 134 134" fill="none" xmlns="http://www.w3.org/2000/svg">
<path d="M51.5031 15.3793C60.0808 6.86663 73.9192 6.86664 82.4969 15.3793L83.4343 16.3095C86.9311 19.7798 91.4914 21.9759 96.3848 22.5461L97.6965 22.699C109.7 24.0978 118.328 34.9171 117.021 46.931L116.878 48.2439C116.345 53.1414 117.471 58.0761 120.077 62.2574L120.775 63.3783C127.165 73.6352 124.086 87.1266 113.878 93.5951L112.763 94.302C108.601 96.9389 105.445 100.896 103.801 105.54L103.36 106.785C99.3249 118.176 86.8569 124.18 75.4351 120.233L74.1869 119.801C69.5308 118.192 64.4692 118.192 59.8131 119.801L58.5649 120.233C47.1431 124.18 34.6751 118.176 30.6403 106.785L30.1994 105.54C28.5546 100.896 25.3988 96.9389 21.2374 94.302L20.1219 93.5951C9.91396 87.1266 6.83465 73.6352 13.2251 63.3783L13.9235 62.2574C16.5286 58.0761 17.6549 53.1414 17.122 48.2439L16.9791 46.931C15.6718 34.9171 24.2999 24.0978 36.3035 22.699L37.6152 22.5461C42.5086 21.9759 47.0689 19.7798 50.5657 16.3095L51.5031 15.3793Z" fill="#E54F4F"/>
<path d="M58.5455 44.4545L66.1818 58H66.5455L74.2727 44.4545H88.3636L74.4545 67.7273L88.9091 91H74.4545L66.5455 77.1818H66.1818L58.2727 91H43.9091L58.1818 67.7273L44.3636 44.4545H58.5455Z" fill="#FAFAFA"/>
</svg>
